<?xml version="1.0" encoding="UTF-8"?>
<svg width="20px" height="24px" viewBox="0 0 20 24" version="1.1" xmlns="http://www.w3.org/2000/svg" xmlns:xlink="http://www.w3.org/1999/xlink">
    <!-- Generator: Sketch 45.2 (43514) - http://www.bohemiancoding.com/sketch -->
    <title>ic_article</title>
    <desc>Created with Sketch.</desc>
    <defs></defs>
    <g id="Assets" stroke="none" stroke-width="1" fill="none" fill-rule="evenodd">
        <g transform="translate(-440.000000, -568.000000)" id="Icon-Copy">
            <g transform="translate(440.000000, 568.000000)">
                <path d="M18.2934277,6.99696 C18.0054277,6.99696 17.7473354,7.12323692 17.5649354,7.32262154 L12.1309662,2.12754462 C12.2982277,1.94477538 12.4023508,1.70108308 12.4023508,1.43117538 C12.4023508,0.866252308 11.9548431,0.408406154 11.4024738,0.408406154 L1.38487385,0.408406154 C0.682227692,0.408406154 0.110658462,0.993267692 0.110658462,1.71179077 L0.110658462,22.47216 C0.110658462,23.2741292 0.74832,23.9261908 1.53256615,23.9261908 L17.7425354,23.9261908 C18.5976738,23.9261908 19.2933046,23.2146831 19.2933046,22.3403446 L19.2933046,8.01936 C19.2933046,7.45480615 18.8457969,6.99696 18.2934277,6.99696" id="Fill-241" fill="#B7E3F6"></path>
                <path d="M19.0146462,7.01294769 L12.0827077,0.534793846 C11.8316308,0.29664 11.4587077,0.228332308 11.1522462,0.365316923 C10.8745846,0.489009231 10.7021538,0.759286154 10.7021538,1.06980923 L10.7021538,7.28691692 C10.7021538,7.51584 10.8,7.63399385 10.9764923,7.81380923 C11.1987692,8.03904 11.5347692,8.07744 11.8342154,8.07744 L11.8408615,8.07744 L18.6092308,8.13430154 C19.0678154,8.13097846 19.2251077,7.95264 19.2716308,7.83079385 C19.32,7.70377846 19.3912615,7.37036308 19.0146462,7.01294769" id="Fill-242" fill="#38B1E7"></path>
                <path d="M3.14233846,12.62448 L8.19489231,12.62448 C8.4744,12.62448 8.70036923,12.3948185 8.70036923,12.11088 C8.70036923,11.8269415 8.4744,11.5969108 8.19489231,11.5969108 L3.14233846,11.5969108 C2.8632,11.5969108 2.63723077,11.8269415 2.63723077,12.11088 C2.63723077,12.3948185 2.8632,12.62448 3.14233846,12.62448" id="Fill-243" fill="#38B1E7"></path>
                <path d="M3.14233846,16.7341662 L16.2792,16.7341662 C16.5583385,16.7341662 16.7843077,16.5045046 16.7843077,16.2205662 C16.7843077,15.9366277 16.5583385,15.7065969 16.2792,15.7065969 L3.14233846,15.7065969 C2.8632,15.7065969 2.63723077,15.9366277 2.63723077,16.2205662 C2.63723077,16.5045046 2.8632,16.7341662 3.14233846,16.7341662" id="Fill-244" fill="#38B1E7"></path>
                <path d="M16.2792,19.8164677 L3.14233846,19.8164677 C2.8632,19.8164677 2.63723077,20.0461292 2.63723077,20.3300677 C2.63723077,20.6140062 2.8632,20.8440369 3.14233846,20.8440369 L16.2792,20.8440369 C16.5583385,20.8440369 16.7843077,20.6140062 16.7843077,20.3300677 C16.7843077,20.0461292 16.5583385,19.8164677 16.2792,19.8164677" id="Fill-245" fill="#38B1E7"></path>
            </g>
        </g>
    </g>
</svg>