<?xml version="1.0" encoding="utf-8"?>
<!-- Generator: Adobe Illustrator 19.2.0, SVG Export Plug-In . SVG Version: 6.00 Build 0)  -->
<svg version="1.1" id="Layer_1" xmlns="http://www.w3.org/2000/svg" xmlns:xlink="http://www.w3.org/1999/xlink" x="0px" y="0px"
	 viewBox="0 0 100 100" enable-background="new 0 0 100 100" xml:space="preserve">
<title>freshworks-dew</title>
<g>
	<g>
		<path fill="#45A4EC" d="M50,100L50,100C22.4,100,0,77.6,0,50v0C0,22.4,22.4,0,50,0h37.5C94.4,0,100,5.6,100,12.5V50
			C100,77.6,77.6,100,50,100z"/>
	</g>
	<g>
		<path fill="#FFFFFF" d="M65.3,29.6h-25c-6.9,0-12.5,5.6-12.5,12.5v21.3c0,1.5,1.2,2.8,2.8,2.8h34.7c6.9,0,12.5-5.6,12.5-12.5V42.1
			C77.8,35.2,72.2,29.6,65.3,29.6z M56.3,56.4H38.2c-1.3,0-2.4-1.1-2.4-2.4s1.1-2.4,2.4-2.4h18.1c1.3,0,2.4,1.1,2.4,2.4
			S57.6,56.4,56.3,56.4z M67.4,44.5H38.2c-1.3,0-2.4-1.1-2.4-2.4s1.1-2.4,2.4-2.4h29.2c1.3,0,2.4,1.1,2.4,2.4S68.8,44.5,67.4,44.5z"
			/>
	</g>
</g>
</svg>
